Coordinates
version=1
nRows=8
nColumns=63
inDegrees=yes

Units are S.I. units (second, meters, Newtons, ...)
If the header above contains a line with 'inDegrees', this indicates whether rotational values are in degrees (yes) or radians (no).

endheader
time	pelvis_tilt	pelvis_list	pelvis_rotation	pelvis_tx	pelvis_ty	pelvis_tz	hip_flexion_r	hip_adduction_r	hip_rotation_r	knee_angle_r	knee_angle_r_beta	ankle_angle_r	subtalar_angle_r	mtp_angle_r	hip_flexion_l	hip_adduction_l	hip_rotation_l	knee_angle_l	knee_angle_l_beta	ankle_angle_l	subtalar_angle_l	mtp_angle_l	L5_S1_Flex_Ext	L5_S1_Lat_Bending	L5_S1_axial_rotation	L4_L5_Flex_Ext	L4_L5_Lat_Bending	L4_L5_axial_rotation	L3_L4_Flex_Ext	L3_L4_Lat_Bending	L3_L4_axial_rotation	L2_L3_Flex_Ext	L2_L3_Lat_Bending	L2_L3_axial_rotation	L1_L2_Flex_Ext	L1_L2_Lat_Bending	L1_L2_axial_rotation	L1_T12_Flex_Ext	L1_T12_Lat_Bending	L1_T12_axial_rotation	Abs_r3	Abs_r2	Abs_r1	Abs_t1	Abs_t2	neck_flexion	neck_bending	neck_rotation	arm_flex_r	arm_add_r	arm_rot_r	elbow_flex_r	pro_sup_r	wrist_flex_r	wrist_dev_r	arm_flex_l	arm_add_l	arm_rot_l	elbow_flex_l	pro_sup_l	wrist_flex_l	wrist_dev_l
      4.24074074	     -0.74985548	      2.74947496	     78.43687099	      0.35539352	      0.83565904	      0.62652010	     -1.44198004	     -1.95130128	     14.45317454	      3.66670768	      0.06399612	     30.76339651	     -4.01477555	      0.00000000	     -1.33865629	     -2.06241378	    -15.15427900	      4.81603987	      0.08405575	     38.05100181	     11.18168173	      0.00000000	     -0.06311412	      0.34287163	      2.05996844	     -0.11720923	      0.45601926	      2.18871647	     -0.10369018	      0.83365807	      2.18871647	     -0.07213312	      0.83365807	      1.80247239	     -0.05860777	      0.69918382	      1.67372436	     -0.03606341	      0.53110815	      1.54497633	     -0.45081782	      3.87863240	     11.45692650	      0.00000000	      0.00000000	     21.77051133	     -6.60113527	     11.24079852	    -10.90964742	    -18.05927204	     -8.44491530	    138.63815493	     73.46739008	     10.84280630	     11.26453951	     -0.34956730	    -10.25871953	     -6.60501797	    100.18054315	     87.92394220	    -14.53625620	      1.62042773
      4.25925926	     -0.90595136	      2.75729502	     78.20313893	      0.35577226	      0.83549582	      0.62717228	     -1.23173665	     -2.12061500	     13.55687093	      3.98389184	      0.06953203	     31.13887088	     -2.47352524	      0.00000000	     -1.33839404	     -1.86161919	    -14.57039514	      4.69990262	      0.08202878	     37.96726193	     10.21524012	      0.00000000	     -0.07742290	      0.31243027	      2.17119496	     -0.14378206	      0.41553227	      2.30689464	     -0.12719808	      0.75964297	      2.30689464	     -0.08848663	      0.75964297	      1.89979559	     -0.07189490	      0.63710782	      1.76409590	     -0.04423944	      0.48395450	      1.62839622	     -0.55302401	      3.53427375	     12.07553500	      0.00000000	      0.00000000	     22.04048851	     -6.57835343	     10.34568068	    -11.06115763	    -17.69775464	     -9.07546047	    138.63879856	     72.29168006	     11.70087302	     12.13536613	      0.15144402	    -10.54775629	     -6.07297580	    100.14946299	     87.85414280	    -14.17657846	      1.28043918
      4.27777778	     -1.02122920	      2.71397769	     77.84187472	      0.35628441	      0.83531804	      0.62784924	     -1.00844427	     -2.21813900	     13.62842254	      4.18042829	      0.07296224	     31.13607867	     -2.11051959	      0.00000000	     -1.31027616	     -1.73239633	    -14.57248758	      4.59271133	      0.08015793	     37.90358935	      9.81656425	      0.00000000	     -0.09347931	      0.28955266	      2.28708239	     -0.17360044	      0.38510503	      2.43002504	     -0.15357717	      0.70401833	      2.43002504	     -0.10683751	      0.70401833	      2.00119710	     -0.08680489	      0.59045578	      1.85825445	     -0.05341408	      0.44851707	      1.71531180	     -0.66771340	      3.27547757	     12.72006616	      0.00000000	      0.00000000	     22.44040933	     -6.69273803	      9.45244924	    -11.25801518	    -17.46296002	     -9.37414269	    138.82524780	     71.82905602	     11.23252804	     12.52208633	      0.68663646	    -10.79547715	     -5.67875432	     99.92903625	     87.81245191	    -13.78519561	      0.23321008
      4.29629630	     -1.16160781	      2.59019417	     77.54839931	      0.35673224	      0.83503435	      0.62846876	     -0.69117605	     -2.32170273	     13.57381201	      4.39767549	      0.07675392	     31.21863442	     -1.68803438	      0.00000000	     -1.17737152	     -1.60942515	    -14.68557921	      4.52971989	      0.07905853	     37.80267179	      9.56558526	      0.00000000	     -0.10046006	      0.26726490	      2.34904308	     -0.18656437	      0.35546232	      2.49585827	     -0.16504583	      0.64982788	      2.49585827	     -0.11481580	      0.64982788	      2.05541269	     -0.09328721	      0.54500659	      1.90859750	     -0.05740288	      0.41399333	      1.76178231	     -0.71757614	      3.02335403	     13.06467289	      0.00000000	      0.00000000	     22.92614170	     -6.65960184	      9.01906258	    -11.32177571	    -17.23658840	     -9.38249160	    138.99192068	     71.91331637	     10.67593990	     12.63887891	      1.01836674	    -10.99896650	     -5.59333517	     99.83519328	     87.86419491	    -13.72194391	     -0.87359217
      4.31481481	     -1.27519200	      2.51295853	     77.55237408	      0.35692910	      0.83484338	      0.62907643	     -0.46514968	     -2.41895889	     12.53331097	      4.59223547	      0.08014963	     31.58912792	     -0.36290506	      0.00000000	     -1.02538421	     -1.53000642	    -14.54745004	      4.55442814	      0.07948977	     37.65079024	      9.36721868	      0.00000000	     -0.11419932	      0.24436028	      2.33530464	     -0.21207956	      0.32499917	      2.48126118	     -0.18761807	      0.59413758	      2.48126118	     -0.13051841	      0.59413758	      2.04339156	     -0.10604549	      0.49829947	      1.89743502	     -0.06525349	      0.37851407	      1.75147848	     -0.81571435	      2.76425231	     12.98826382	      0.00000000	      0.00000000	     23.42154921	     -6.66903548	      8.46917766	    -11.26151969	    -16.93355624	     -9.29802142	    138.92170829	     71.36539689	     10.70286211	     12.42480981	      1.19851498	    -11.15877072	     -5.72438471	     99.98135581	     87.96728978	    -13.61537223	     -1.40241529
      4.33333333	     -1.43741748	      2.32818805	     77.10809471	      0.35773047	      0.83438849	      0.62990643	     -0.13784141	     -2.44749179	     14.85234406	      4.61676001	      0.08057766	     31.16594862	     -2.91336056	      0.00000000	     -0.70580990	     -1.51314181	    -16.32715205	      4.83147490	      0.08432514	     37.85591628	     10.84258546	      0.00000000	     -0.11049583	      0.21970873	      2.44065966	     -0.20520180	      0.29221262	      2.59320089	     -0.18153360	      0.53419982	      2.59320089	     -0.12628568	      0.53419982	      2.13557720	     -0.10260643	      0.44803005	      1.98303597	     -0.06313732	      0.34032883	      1.83049474	     -0.78926065	      2.48538915	     13.57421682	      0.00000000	      0.00000000	     23.86336304	     -6.81452361	      7.81882425	    -11.61962218	    -16.60735715	     -9.08653426	    139.59460526	     74.40935896	      7.43781252	     12.23726438	      1.30273034	    -11.33776899	     -5.56722623	    100.25835165	     87.93899973	    -13.76548174	     -1.81606894
      4.35185185	     -1.51543205	      2.21148715	     76.72069346	      0.35838657	      0.83412444	      0.63065189	      0.25744476	     -2.48810616	     13.95644560	      4.97022925	      0.08674687	     31.66621313	     -1.24585671	      0.00000000	     -0.54056216	     -1.50891428	    -17.07945207	      4.96358212	      0.08663085	     37.84072552	     11.18178839	      0.00000000	     -0.11205942	      0.19969522	      2.53631262	     -0.20810555	      0.26559464	      2.69483216	     -0.18410243	      0.48553896	      2.69483216	     -0.12807271	      0.48553896	      2.21927355	     -0.10405838	      0.40721849	      2.06075401	     -0.06403075	      0.30932789	      1.90223447	     -0.80042925	      2.25899226	     14.10620992	      0.00000000	      0.00000000	     24.13584339	     -6.93846478	      6.75673131	    -11.84362963	    -16.18295076	     -9.43240163	    139.84445123	     74.34842354	      7.14544248	     12.91061261	      1.05870052	    -11.40822474	     -5.52883345	    101.08685176	     87.90976336	    -13.67537692	     -0.78854777
      4.37037037	     -1.54747947	      2.13824922	     76.56742883	      0.35896821	      0.83390952	      0.63114816	      0.37293336	     -2.41463579	     15.32531253	      4.94670540	      0.08633630	     31.28925569	     -2.98808952	      0.00000000	     -0.29892240	     -1.66991206	    -19.16417525	      5.47248784	      0.09551293	     38.22641122	     13.35478239	      0.00000000	     -0.11053408	      0.18307252	      2.54185042	     -0.20527285	      0.24348646	      2.70071607	     -0.18159645	      0.44512253	      2.70071607	     -0.12632941	      0.44512253	      2.22411912	     -0.10264195	      0.37332149	      2.06525347	     -0.06315918	      0.28357934	      1.90638782	     -0.78953391	      2.07095300	     14.13700950	      0.00000000	      0.00000000	     24.27211692	     -6.80620705	      6.17367645	    -11.90099852	    -15.85772090	     -9.32867493	    139.82307235	     74.97839221	      6.66960946	     12.83481073	      0.21650403	    -11.36126226	     -5.99093112	    102.63875325	     87.83219614	    -13.42377493	      1.85758372
